<mxfile host="app.diagrams.net" agent="Mozilla/5.0 (Windows NT 10.0; Win64; x64) AppleWebKit/537.36 (KHTML, like Gecko) Chrome/131.0.0.0 Safari/537.36" version="24.9.0">
  <diagram name="หน้า-1" id="fRDHDJ_EMd6GSNFkFPec">
    <mxGraphModel dx="794" dy="493" grid="1" gridSize="10" guides="1" tooltips="1" connect="1" arrows="1" fold="1" page="1" pageScale="1" pageWidth="827" pageHeight="1169" math="0" shadow="0">
      <root>
        <mxCell id="0" />
        <mxCell id="1" parent="0" />
        <mxCell id="aJSTaFlXnE6WLZFjtNRm-2" style="edgeStyle=orthogonalEdgeStyle;rounded=0;orthogonalLoop=1;jettySize=auto;html=1;" edge="1" parent="1" source="aJSTaFlXnE6WLZFjtNRm-1">
          <mxGeometry relative="1" as="geometry">
            <mxPoint x="400" y="280" as="targetPoint" />
          </mxGeometry>
        </mxCell>
        <mxCell id="aJSTaFlXnE6WLZFjtNRm-1" value="start" style="ellipse;whiteSpace=wrap;html=1;" vertex="1" parent="1">
          <mxGeometry x="340" y="120" width="120" height="80" as="geometry" />
        </mxCell>
        <mxCell id="aJSTaFlXnE6WLZFjtNRm-11" style="edgeStyle=orthogonalEdgeStyle;rounded=0;orthogonalLoop=1;jettySize=auto;html=1;entryX=0.5;entryY=0;entryDx=0;entryDy=0;" edge="1" parent="1" source="aJSTaFlXnE6WLZFjtNRm-5" target="aJSTaFlXnE6WLZFjtNRm-8">
          <mxGeometry relative="1" as="geometry" />
        </mxCell>
        <mxCell id="aJSTaFlXnE6WLZFjtNRm-5" value="Hello, I&#39;m Javis (RMUTL-Version)." style="shape=parallelogram;perimeter=parallelogramPerimeter;whiteSpace=wrap;html=1;fixedSize=1;" vertex="1" parent="1">
          <mxGeometry x="280" y="280" width="240" height="80" as="geometry" />
        </mxCell>
        <mxCell id="aJSTaFlXnE6WLZFjtNRm-12" style="edgeStyle=orthogonalEdgeStyle;rounded=0;orthogonalLoop=1;jettySize=auto;html=1;entryX=0.5;entryY=0;entryDx=0;entryDy=0;" edge="1" parent="1" source="aJSTaFlXnE6WLZFjtNRm-8" target="aJSTaFlXnE6WLZFjtNRm-9">
          <mxGeometry relative="1" as="geometry" />
        </mxCell>
        <mxCell id="aJSTaFlXnE6WLZFjtNRm-8" value="&lt;div&gt;This is my first time to coding with C language.&lt;/div&gt;" style="shape=parallelogram;perimeter=parallelogramPerimeter;whiteSpace=wrap;html=1;fixedSize=1;" vertex="1" parent="1">
          <mxGeometry x="260" y="440" width="280" height="80" as="geometry" />
        </mxCell>
        <mxCell id="aJSTaFlXnE6WLZFjtNRm-13" style="edgeStyle=orthogonalEdgeStyle;rounded=0;orthogonalLoop=1;jettySize=auto;html=1;entryX=0.5;entryY=0;entryDx=0;entryDy=0;" edge="1" parent="1" source="aJSTaFlXnE6WLZFjtNRm-9" target="aJSTaFlXnE6WLZFjtNRm-10">
          <mxGeometry relative="1" as="geometry" />
        </mxCell>
        <mxCell id="aJSTaFlXnE6WLZFjtNRm-9" value="Today is my birthday." style="shape=parallelogram;perimeter=parallelogramPerimeter;whiteSpace=wrap;html=1;fixedSize=1;" vertex="1" parent="1">
          <mxGeometry x="280" y="600" width="240" height="80" as="geometry" />
        </mxCell>
        <mxCell id="aJSTaFlXnE6WLZFjtNRm-10" value="end" style="ellipse;whiteSpace=wrap;html=1;" vertex="1" parent="1">
          <mxGeometry x="340" y="760" width="120" height="80" as="geometry" />
        </mxCell>
      </root>
    </mxGraphModel>
  </diagram>
</mxfile>
